<svg xmlns="http://www.w3.org/2000/svg" width="1200" height="675" viewBox="0 0 1200 675" role="img" aria-label="Eight kinds of information a single HTML file can carry">
  <rect width="1200" height="675" fill="#FAF8F5"/>
  <defs>
    <style>
      .card{fill:#FFFDF9;stroke:#D4CFC7;stroke-width:2}
      .title{font:700 26px Georgia,serif;fill:#141413}
      .sub{font:18px system-ui,sans-serif;fill:#6F6A63}
      .mono{font:17px ui-monospace,monospace;fill:#8A837A}
      .line{stroke:#8A837A;stroke-width:4;stroke-linecap:round}
    </style>
  </defs>
  <g transform="translate(50 68)">
    <g transform="translate(0 0)">
      <rect class="card" width="250" height="250" rx="15"/>
      <g transform="translate(78 55)">
        <rect x="0" y="0" width="94" height="70" rx="6" fill="#fff" stroke="#77746d" stroke-width="3"/>
        <rect x="0" y="0" width="94" height="22" fill="#E3DACC" stroke="#77746d" stroke-width="3"/>
        <path d="M31 0v70M63 0v70M0 45h94" stroke="#C7C1B7"/>
      </g>
      <text class="title" x="125" y="190" text-anchor="middle">Tables</text>
      <text class="sub" x="125" y="222" text-anchor="middle">Real rows &amp; columns</text>
    </g>
    <g transform="translate(285 0)">
      <rect class="card" width="250" height="250" rx="15"/>
      <rect x="68" y="64" width="22" height="22" rx="4" fill="#141413"/>
      <rect x="99" y="64" width="22" height="22" rx="4" fill="#788C5D"/>
      <rect x="130" y="64" width="22" height="22" rx="4" fill="#E3DACC"/>
      <rect x="161" y="64" width="22" height="22" rx="4" fill="#FAF8F5" stroke="#D4CFC7"/>
      <text class="mono" x="125" y="114" text-anchor="middle">font: serif</text>
      <text class="title" x="125" y="190" text-anchor="middle">Design</text>
      <text class="sub" x="125" y="222" text-anchor="middle">Color, type, spacing</text>
    </g>
    <g transform="translate(570 0)">
      <rect class="card" width="250" height="250" rx="15"/>
      <circle cx="99" cy="75" r="19" fill="#fff" stroke="#2C2825" stroke-width="3"/>
      <rect x="134" y="56" width="34" height="34" rx="4" fill="#E3DACC" stroke="#2C2825" stroke-width="3"/>
      <path d="M75 120l33-28 31 25 30-22" fill="none" stroke="#8A837A" stroke-width="3"/>
      <text class="title" x="125" y="190" text-anchor="middle">Illustrations</text>
      <text class="sub" x="125" y="222" text-anchor="middle">Inline SVG diagrams</text>
    </g>
    <g transform="translate(855 0)">
      <rect class="card" width="250" height="250" rx="15"/>
      <rect x="76" y="54" width="98" height="74" rx="7" fill="#141413"/>
      <path class="line" d="M99 72h52M99 88h67M99 105h45M99 121h59" stroke="#C7C1B7"/>
      <text class="title" x="125" y="190" text-anchor="middle">Code</text>
      <text class="sub" x="125" y="222" text-anchor="middle">Highlighted snippets</text>
    </g>
    <g transform="translate(0 295)">
      <rect class="card" width="250" height="250" rx="15"/>
      <line x1="75" y1="70" x2="175" y2="70" stroke="#E2DFD8" stroke-width="16" stroke-linecap="round"/>
      <line x1="75" y1="70" x2="138" y2="70" stroke="#D97757" stroke-width="16" stroke-linecap="round"/>
      <circle cx="138" cy="70" r="13" fill="#FAF8F5" stroke="#D97757" stroke-width="4"/>
      <line x1="75" y1="114" x2="175" y2="114" stroke="#E2DFD8" stroke-width="16" stroke-linecap="round"/>
      <line x1="75" y1="114" x2="108" y2="114" stroke="#8A8A82" stroke-width="16" stroke-linecap="round"/>
      <circle cx="108" cy="114" r="13" fill="#FAF8F5" stroke="#8A8A82" stroke-width="4"/>
      <text class="title" x="125" y="190" text-anchor="middle">Interaction</text>
      <text class="sub" x="125" y="222" text-anchor="middle">Sliders, toggles, JS</text>
    </g>
    <g transform="translate(285 295)">
      <rect class="card" width="250" height="250" rx="15"/>
      <rect x="63" y="78" width="32" height="32" rx="5" fill="#fff" stroke="#2C2825" stroke-width="3"/>
      <rect x="113" y="78" width="32" height="32" rx="5" fill="#E3DACC" stroke="#2C2825" stroke-width="3"/>
      <rect x="163" y="78" width="32" height="32" rx="5" fill="#141413"/>
      <path d="M96 94h17M146 94h17" stroke="#8A837A" stroke-width="3" marker-end="url(#arrow)"/>
      <text class="title" x="125" y="190" text-anchor="middle">Workflows</text>
      <text class="sub" x="125" y="222" text-anchor="middle">Boxes, arrows, flow</text>
    </g>
    <g transform="translate(570 295)">
      <rect class="card" width="250" height="250" rx="15"/>
      <path d="M76 64v70h98" fill="none" stroke="#8A837A" stroke-width="3"/>
      <circle cx="100" cy="109" r="6" fill="#2C2825"/>
      <circle cx="120" cy="88" r="6" fill="#8A8A82"/>
      <circle cx="140" cy="106" r="6" fill="#4F4D48"/>
      <circle cx="160" cy="78" r="6" fill="#77746D"/>
      <text class="title" x="125" y="190" text-anchor="middle">Spatial</text>
      <text class="sub" x="125" y="222" text-anchor="middle">Canvas &amp; coordinates</text>
    </g>
    <g transform="translate(855 295)">
      <rect class="card" width="250" height="250" rx="15"/>
      <rect x="77" y="54" width="98" height="74" rx="7" fill="#F0EDE8" stroke="#77746D" stroke-width="3"/>
      <circle cx="151" cy="76" r="10" fill="#E3DACC"/>
      <path d="M82 126l34-43 24 30 19-22 18 35z" fill="#CFC9BD"/>
      <text class="title" x="125" y="190" text-anchor="middle">Images</text>
      <text class="sub" x="125" y="222" text-anchor="middle">Embedded figures</text>
    </g>
  </g>
  <text x="600" y="636" text-anchor="middle" font-family="system-ui,sans-serif" font-size="21" fill="#8A837A">Eight kinds of information a single HTML file can carry</text>
</svg>
